<svg id="screpka"
     xmlns="http://www.w3.org/2000/svg"
     viewBox="0 0 351.136 351.136"
     xmlns:v="https://vecta.io/nano">
    <path d="M324.572 42.7c-35.42-35.42-92.855-35.42-128.273 0L19.93 219.066c-26.575 26.575-26.575 69.635 0 96.21 21.904 21.904 54.942 25.44 80.77 11.224 2.698-.136 5.35-1.156 7.415-3.197l176.367-176.367c17.71-17.71 17.71-46.416 0-64.125s-46.416-17.71-64.125 0L76.052 227.116c-4.422 4.422-4.422 11.6 0 16.03s11.6 4.422 16.03 0L236.388 98.843c8.866-8.866 23.22-8.866 32.063 0 8.866 8.866 8.866 23.22 0 32.063L100.088 299.268c-17.71 17.71-46.416 17.71-64.125 0s-17.71-46.416 0-64.125L212.33 58.73c26.575-26.575 69.635-26.575 96.21 0s26.575 69.635 0 96.21L148.205 315.277c-4.422 4.422-4.422 11.6 0 16.03s11.6 4.422 16.03 0l160.336-160.336c35.42-35.418 35.42-92.854 0-128.273z" />
</svg>