<?xml version="1.0" encoding="utf-8"?>
<svg viewBox="0 0 512 512"
     xmlns="http://www.w3.org/2000/svg"
     xmlns:xlink="http://www.w3.org/1999/xlink">
    <style>:root&gt;svg{display:none}:root&gt;svg:target{display:block}</style>
    <svg viewBox="0 0 512 512"
         id="plus"
         xmlns="http://www.w3.org/2000/svg">
        <path d="M437.02 74.98C388.668 26.63 324.38 0 256 0S123.332 26.63 74.98 74.98 0 187.62 0 256s26.63 132.668 74.98 181.02S187.62 512 256 512s132.668-26.63 181.02-74.98S512 324.38 512 256s-26.63-132.668-74.98-181.02zM256 472c-119.102 0-216-96.898-216-216S136.898 40 256 40s216 96.898 216 216-96.898 216-216 216zm20-236.02h90v40h-90v90h-40v-90h-90v-40h90v-90h40zm0 0" />
    </svg>
    <svg viewBox="0 0 351.136 351.136"
         id="screpka"
         xmlns="http://www.w3.org/2000/svg">
        <path d="M324.572 42.7c-35.42-35.42-92.855-35.42-128.273 0L19.93 219.066c-26.575 26.575-26.575 69.635 0 96.21 21.904 21.904 54.942 25.44 80.77 11.224 2.698-.136 5.35-1.156 7.415-3.197l176.367-176.367c17.71-17.71 17.71-46.416 0-64.125s-46.416-17.71-64.125 0L76.052 227.116c-4.422 4.422-4.422 11.6 0 16.03s11.6 4.422 16.03 0L236.388 98.843c8.866-8.866 23.22-8.866 32.063 0 8.866 8.866 8.866 23.22 0 32.063L100.088 299.268c-17.71 17.71-46.416 17.71-64.125 0s-17.71-46.416 0-64.125L212.33 58.73c26.575-26.575 69.635-26.575 96.21 0s26.575 69.635 0 96.21L148.205 315.277c-4.422 4.422-4.422 11.6 0 16.03s11.6 4.422 16.03 0l160.336-160.336c35.42-35.418 35.42-92.854 0-128.273z" />
    </svg>
</svg>